<svg width="96" height="96" viewBox="0 0 96 96" fill="none" xmlns="http://www.w3.org/2000/svg">
<path d="M86.7585 44.4703L79.1515 72.8142C78.2294 71.8875 77.3842 70.8834 76.4621 69.8794C76.0011 69.416 75.6169 68.8754 75.1559 68.412C70.4687 63.7009 63.6301 61.2295 57.0988 62.0791C53.4874 62.5425 49.4918 63.7782 46.3414 61.9246C44.4205 60.8434 43.2679 58.8353 41.9616 57.059C37.8892 51.4984 31.5116 47.7912 24.8267 46.6328L29.5138 29.1012C29.6675 28.6378 30.0517 28.4062 30.5127 28.4834L32.8179 29.1012L77.3842 41.1493L83.6849 42.8484L86.0669 43.4663C86.6048 43.5435 86.9121 44.0069 86.7585 44.4703Z" fill="#C0F7DD"/>
<path d="M83.273 39.5549L82.5815 42.1807L75.3587 69.0573C75.3587 69.1345 75.3587 69.1345 75.2818 69.2117C74.8208 68.7484 74.4366 68.2077 73.9756 67.7443C69.2884 63.0332 62.4498 60.5618 55.9185 61.4114C52.3071 61.8748 48.3115 63.1105 45.1612 61.2569C43.2402 60.1757 42.0876 58.1676 40.7814 56.3913C36.7089 50.8307 30.3313 47.1235 23.6464 45.9651C22.5707 45.7334 21.4181 45.6561 20.2655 45.5789L26.0284 24.1086C26.1052 23.8769 26.3357 23.7224 26.5663 23.568C26.7199 23.4907 26.9504 23.4907 27.1041 23.4907L82.7351 38.4736C82.8888 38.5509 83.0425 38.6281 83.1962 38.7825C83.273 39.0915 83.3499 39.3232 83.273 39.5549Z" fill="white" stroke="#333333" stroke-width="2"/>
<path d="M83.5035 38.7827L50.7704 46.6603L26.2589 23.3364" stroke="#333333" stroke-width="2"/>
<path d="M74 83.5526H90.2535C92.3771 83.5526 94.0923 81.8287 94.0923 79.7763C94.0923 77.6419 92.3771 76 90.2535 76H87.3132" stroke="#333333" stroke-width="2" stroke-miterlimit="10"/>
<path d="M74 91.0234H83.066" stroke="#333333" stroke-width="2" stroke-miterlimit="10"/>
<path d="M80 74C77.6964 72.3986 76.0838 70.0347 74.0874 68.052C69.4034 63.3241 62.5693 60.9602 56.0424 61.7227C52.3566 62.104 48.4404 63.4004 45.2921 61.5702C43.3725 60.4264 42.2207 58.4437 40.9153 56.6898C34.5419 48.1491 22.8703 44.1076 12.6575 46.8528C8.48375 47.9747 4.65625 50.2047 1.5 53.1733" stroke="#333333" stroke-width="2" stroke-miterlimit="10"/>
<path d="M6.96021 7L8.92043 9.95538" stroke="#333333" stroke-width="2" stroke-miterlimit="10" stroke-linecap="round"/>
<path d="M13.6577 16.769L15.6179 19.7244" stroke="#333333" stroke-width="2" stroke-miterlimit="10" stroke-linecap="round"/>
<path d="M5 17.6725L7.94034 15.6201" stroke="#333333" stroke-width="2" stroke-miterlimit="10" stroke-linecap="round"/>
<path d="M14.7195 11.0226L17.6598 8.97021" stroke="#333333" stroke-width="2" stroke-miterlimit="10" stroke-linecap="round"/>
</svg>
